<svg xmlns="http://www.w3.org/2000/svg" version="1.1" xmlns:xlink="http://www.w3.org/1999/xlink" xmlns:svgjs="http://svgjs.dev/svgjs" width="1000" height="80" viewBox="0 0 1000 80"><g transform="matrix(1,0,0,1,-0.6060398543855854,-0.3856426762840215)"><svg viewBox="0 0 396 32" data-background-color="#ffffff" preserveAspectRatio="xMidYMid meet" height="80" width="1000" xmlns="http://www.w3.org/2000/svg" xmlns:xlink="http://www.w3.org/1999/xlink"><g id="tight-bounds" transform="matrix(1,0,0,1,0.23999178233668772,0.1542570705136086)"><svg viewBox="0 0 395.52 31.691482728012044" height="31.691482728012044" width="395.52"><g><svg viewBox="0 0 445.7714986818246 35.71794030925133" height="31.691482728012044" width="395.52"><g><rect width="2.3307385803203213" height="25.974334305931677" x="41.81935020537783" y="4.871803001659828" fill="#ffffff" opacity="1" stroke-width="0" stroke="transparent" fill-opacity="1" class="rect-o-0" data-fill-palette-color="primary" rx="1%" id="o-0" data-palette-color="#1c4b82"></rect></g><g transform="matrix(1,0,0,1,50.25149868182465,4.936415773565129)"><svg viewBox="0 0 395.52 25.845108762121075" height="25.845108762121075" width="395.52"><g id="textblocktransform"><svg viewBox="0 0 395.52 25.845108762121075" height="25.845108762121075" width="395.52" id="textblock"><g><svg viewBox="0 0 395.52 25.845108762121075" height="25.845108762121075" width="395.52"><g transform="matrix(1,0,0,1,0,0)"><svg width="395.52" viewBox="1.7000000476837158 -37.099998474121094 572.4099731445312 37.39999771118164" height="25.845108762121075" data-palette-color="#1c4b82"><g class="wordmark-text-0" data-fill-palette-color="primary" id="text-0"><path d="M5.8 0L1.7 0 14.3-36.8 19.4-36.8 32 0 27.9 0 24.2-10.5 9.4-10.5 5.8 0ZM16.85-33.3L10.4-14.1 23.2-14.1 16.85-33.3ZM42.2 0L38.25 0 38.25-36.8 41.5-36.8 60.7-6.85 60.7-36.8 64.65-36.8 64.65 0 61.4 0 42.2-29.95 42.2 0ZM85 0.3L85 0.3Q81.44 0.3 78.77-0.38 76.09-1.05 74.32-2.95 72.55-4.85 71.67-8.55 70.8-12.25 70.8-18.25L70.8-18.25Q70.8-24.25 71.69-27.98 72.59-31.7 74.39-33.68 76.19-35.65 78.84-36.38 81.5-37.1 85-37.1L85-37.1Q88.59-37.1 91.27-36.38 93.94-35.65 95.72-33.68 97.5-31.7 98.34-27.98 99.19-24.25 99.19-18.25L99.19-18.25Q99.19-12.25 98.32-8.55 97.44-4.85 95.67-2.95 93.89-1.05 91.25-0.38 88.59 0.3 85 0.3ZM85-3.25L85-3.25Q87.8-3.25 89.75-3.8 91.69-4.35 92.92-5.93 94.14-7.5 94.69-10.45 95.25-13.4 95.25-18.25L95.25-18.25Q95.25-23.3 94.67-26.35 94.09-29.4 92.87-30.95 91.64-32.5 89.72-33 87.8-33.5 85-33.5L85-33.5Q82.39-33.5 80.47-33 78.55-32.5 77.27-30.95 76-29.4 75.37-26.35 74.75-23.3 74.75-18.25L74.75-18.25Q74.75-13.4 75.27-10.45 75.8-7.5 77-5.93 78.19-4.35 80.17-3.8 82.14-3.25 85-3.25ZM118.29 0L114.29 0 114.29-33.2 102.94-33.2 102.94-36.8 129.64-36.8 129.64-33.2 118.29-33.2 118.29 0ZM138.29 0L134.29 0 134.29-36.8 138.29-36.8 138.29-19.75 156.69-19.75 156.69-36.8 160.64-36.8 160.64 0 156.69 0 156.69-16.15 138.29-16.15 138.29 0ZM176.19 0.2L176.19 0.2Q174.99 0.2 173.64-0.03 172.29-0.25 171.09-0.95 169.89-1.65 169.14-3.08 168.39-4.5 168.39-6.95L168.39-6.95 168.39-29.4Q168.39-31.55 169.01-32.98 169.64-34.4 170.69-35.23 171.74-36.05 173.04-36.43 174.34-36.8 175.64-36.8L175.64-36.8Q178.74-36.75 181.39-36.68 184.04-36.6 186.41-36.52 188.79-36.45 191.04-36.35L191.04-36.35 191.04-33.15 176.64-33.15Q174.69-33.15 173.54-32.1 172.39-31.05 172.39-28.75L172.39-28.75 172.39-20.05 188.84-19.8 188.84-16.75 172.39-16.5 172.39-7.85Q172.39-6 173.01-5.05 173.64-4.1 174.69-3.8 175.74-3.5 176.84-3.5L176.84-3.5 191.04-3.5 191.04-0.3Q188.74-0.15 186.21-0.05 183.69 0.05 181.16 0.1 178.64 0.15 176.19 0.2ZM201.74 0L197.74 0 197.74-36.8 212.24-36.8Q214.04-36.8 215.74-36.38 217.44-35.95 218.81-34.8 220.19-33.65 220.99-31.53 221.79-29.4 221.79-25.95L221.79-25.95Q221.79-22.95 221.14-21.03 220.49-19.1 219.44-17.98 218.39-16.85 217.16-16.32 215.94-15.8 214.79-15.6L214.79-15.6 222.34 0 218.29 0 211.14-15.05Q210.34-15.05 209.14-15.1 207.94-15.15 206.59-15.15 205.24-15.15 203.96-15.2 202.69-15.25 201.74-15.25L201.74-15.25 201.74 0ZM201.74-33.2L201.74-18.3 211.64-18.3Q212.94-18.3 214.04-18.6 215.14-18.9 215.99-19.73 216.84-20.55 217.34-22.05 217.84-23.55 217.84-25.95L217.84-25.95Q217.84-28.25 217.34-29.68 216.84-31.1 215.96-31.88 215.09-32.65 213.99-32.93 212.89-33.2 211.64-33.2L211.64-33.2 201.74-33.2Z" fill="#ffffff" data-fill-palette-color="primary"></path><path d="M251.29 0L246.99 0 237.54-36.8 241.64-36.8 249.54-5.45 258.64-36.8 262.64-36.8 271.69-5.45 279.59-36.8 283.69-36.8 274.24 0 269.94 0 260.64-31.25 251.29 0ZM297.04 0.2L297.04 0.2Q295.84 0.2 294.49-0.03 293.14-0.25 291.94-0.95 290.74-1.65 289.99-3.08 289.24-4.5 289.24-6.95L289.24-6.95 289.24-29.4Q289.24-31.55 289.86-32.98 290.49-34.4 291.54-35.23 292.59-36.05 293.89-36.43 295.19-36.8 296.49-36.8L296.49-36.8Q299.59-36.75 302.24-36.68 304.89-36.6 307.26-36.52 309.64-36.45 311.89-36.35L311.89-36.35 311.89-33.15 297.49-33.15Q295.54-33.15 294.39-32.1 293.24-31.05 293.24-28.75L293.24-28.75 293.24-20.05 309.69-19.8 309.69-16.75 293.24-16.5 293.24-7.85Q293.24-6 293.86-5.05 294.49-4.1 295.54-3.8 296.59-3.5 297.69-3.5L297.69-3.5 311.89-3.5 311.89-0.3Q309.59-0.15 307.06-0.05 304.54 0.05 302.01 0.1 299.49 0.15 297.04 0.2ZM320.53 0L316.43 0 329.03-36.8 334.13-36.8 346.73 0 342.63 0 338.93-10.5 324.13-10.5 320.53 0ZM331.58-33.3L325.13-14.1 337.93-14.1 331.58-33.3ZM364.58 0L360.58 0 360.58-33.2 349.23-33.2 349.23-36.8 375.93-36.8 375.93-33.2 364.58-33.2 364.58 0ZM384.58 0L380.58 0 380.58-36.8 384.58-36.8 384.58-19.75 402.98-19.75 402.98-36.8 406.93-36.8 406.93 0 402.98 0 402.98-16.15 384.58-16.15 384.58 0ZM422.48 0.2L422.48 0.2Q421.28 0.2 419.93-0.03 418.58-0.25 417.38-0.95 416.18-1.65 415.43-3.08 414.68-4.5 414.68-6.95L414.68-6.95 414.68-29.4Q414.68-31.55 415.3-32.98 415.93-34.4 416.98-35.23 418.03-36.05 419.33-36.43 420.63-36.8 421.93-36.8L421.93-36.8Q425.03-36.75 427.68-36.68 430.33-36.6 432.7-36.52 435.08-36.45 437.33-36.35L437.33-36.35 437.33-33.15 422.93-33.15Q420.98-33.15 419.83-32.1 418.68-31.05 418.68-28.75L418.68-28.75 418.68-20.05 435.13-19.8 435.13-16.75 418.68-16.5 418.68-7.85Q418.68-6 419.3-5.05 419.93-4.1 420.98-3.8 422.03-3.5 423.13-3.5L423.13-3.5 437.33-3.5 437.33-0.3Q435.03-0.15 432.5-0.05 429.98 0.05 427.45 0.1 424.93 0.15 422.48 0.2ZM448.02 0L444.02 0 444.02-36.8 458.52-36.8Q460.32-36.8 462.02-36.38 463.72-35.95 465.1-34.8 466.47-33.65 467.27-31.53 468.07-29.4 468.07-25.95L468.07-25.95Q468.07-22.95 467.42-21.03 466.77-19.1 465.72-17.98 464.67-16.85 463.45-16.32 462.22-15.8 461.07-15.6L461.07-15.6 468.62 0 464.57 0 457.42-15.05Q456.62-15.05 455.42-15.1 454.22-15.15 452.87-15.15 451.52-15.15 450.25-15.2 448.97-15.25 448.02-15.25L448.02-15.25 448.02 0ZM448.02-33.2L448.02-18.3 457.92-18.3Q459.22-18.3 460.32-18.6 461.42-18.9 462.27-19.73 463.12-20.55 463.62-22.05 464.12-23.55 464.12-25.95L464.12-25.95Q464.12-28.25 463.62-29.68 463.12-31.1 462.25-31.88 461.37-32.65 460.27-32.93 459.17-33.2 457.92-33.2L457.92-33.2 448.02-33.2Z" fill="#ffffff" data-fill-palette-color="primary"></path><path d="M487.92 0L483.82 0 496.42-36.8 501.52-36.8 514.12 0 510.02 0 506.32-10.5 491.52-10.5 487.92 0ZM498.97-33.3L492.52-14.1 505.32-14.1 498.97-33.3ZM523.67 0L519.67 0 519.67-36.8 534.32-36.8Q535.92-36.8 537.59-36.38 539.27-35.95 540.72-34.73 542.17-33.5 543.04-31.18 543.92-28.85 543.92-25.05L543.92-25.05Q543.92-21.15 542.99-18.78 542.07-16.4 540.59-15.13 539.12-13.85 537.42-13.4 535.72-12.95 534.12-12.95L534.12-12.95Q533.37-12.95 531.92-13 530.47-13.05 528.84-13.13 527.22-13.2 525.82-13.3 524.42-13.4 523.67-13.45L523.67-13.45 523.67 0ZM523.67-33.2L523.67-16.5 533.62-16.5Q535.37-16.5 536.82-17.25 538.27-18 539.09-19.85 539.92-21.7 539.92-25L539.92-25Q539.92-28.25 539.09-30.03 538.27-31.8 536.92-32.5 535.57-33.2 533.97-33.2L533.97-33.2 523.67-33.2ZM553.86 0L549.86 0 549.86-36.8 564.51-36.8Q566.11-36.8 567.79-36.38 569.46-35.95 570.91-34.73 572.36-33.5 573.24-31.18 574.11-28.85 574.11-25.05L574.11-25.05Q574.11-21.15 573.19-18.78 572.26-16.4 570.79-15.13 569.31-13.85 567.61-13.4 565.91-12.95 564.31-12.95L564.31-12.95Q563.56-12.95 562.11-13 560.66-13.05 559.04-13.13 557.41-13.2 556.01-13.3 554.61-13.4 553.86-13.45L553.86-13.45 553.86 0ZM553.86-33.2L553.86-16.5 563.81-16.5Q565.56-16.5 567.01-17.25 568.46-18 569.29-19.85 570.11-21.7 570.11-25L570.11-25Q570.11-28.25 569.29-30.03 568.46-31.8 567.11-32.5 565.76-33.2 564.16-33.2L564.16-33.2 553.86-33.2Z" fill="#ffffff" data-fill-palette-color="primary"></path></g></svg></g></svg></g></svg></g></svg></g><g><svg viewBox="0 0 35.71794030925133 35.71794030925133" height="35.71794030925133" width="35.71794030925133"><g><svg xmlns="http://www.w3.org/2000/svg" data-name="Layer 1" viewBox="10.539999961853027 10.539999961853027 18.919998168945312 18.919998168945312" x="0" y="0" height="35.71794030925133" width="35.71794030925133" class="icon-icon-0" data-fill-palette-color="accent" id="icon-0"><path d="M29.46 20l-2.9-2.72 0.13-4-4 0.13L20 10.54l-2.72 2.9-4-0.13 0.13 4L10.54 20l2.9 2.72-0.13 4 4-0.13L20 29.46l2.72-2.9 4 0.13-0.13-4Zm-4.84 4.62l-2.75-0.09-1.88 2-1.88-2-2.75 0.09 0.09-2.75-2-1.88 2-1.88-0.09-2.75 2.75 0.09 1.88-2 1.88 2 2.75-0.09-0.09 2.75 2 1.88-2 1.88Z" fill="#ffffff" data-fill-palette-color="accent"></path><circle cx="20" cy="20" r="3.0" fill="#ffffff" data-fill-palette-color="accent"></circle></svg></g></svg></g></svg></g><defs></defs></svg><rect width="395.52" height="31.691482728012044" fill="none" stroke="none" visibility="hidden"></rect></g></svg></g></svg>